<svg width="1600" height="83" viewBox="0 0 1600 83" fill="none" xmlns="http://www.w3.org/2000/svg">
<g clip-path="url(#clip0_365_88)">
<path d="M0 63.0249C26.6699 89.6636 53.3237 89.6636 79.9936 63.0249C106.663 36.3863 133.317 36.3863 159.987 63.0249C186.657 89.6636 213.311 89.6636 239.981 63.0249C266.651 36.3863 293.305 36.3863 319.974 63.0249C346.644 89.6636 373.298 89.6636 399.968 63.0249C426.638 36.3863 453.292 36.3863 479.962 63.0249C506.631 89.6636 533.285 89.6636 559.955 63.0249C586.625 36.3863 613.279 36.3863 639.949 63.0249C666.619 89.6636 693.273 89.6636 719.942 63.0249C746.612 36.3863 773.266 36.3863 799.936 63.0249C826.606 89.6636 853.26 89.6636 879.93 63.0249C906.599 36.3863 933.253 36.3863 959.923 63.0249C986.593 89.6636 1013.25 89.6636 1039.92 63.0249C1066.59 36.3863 1093.24 36.3863 1119.91 63.0249C1146.58 89.6636 1173.23 89.6636 1199.9 63.0249C1226.57 36.3863 1253.23 36.3863 1279.9 63.0249C1306.57 89.6636 1333.22 89.6636 1359.89 63.0249C1386.56 36.3863 1413.21 36.3863 1439.88 63.0249C1466.55 89.6636 1493.21 89.6636 1519.88 63.0249C1546.55 36.3863 1573.2 36.3863 1599.87 63.0249L1600 -8.39233e-05H0.223982L0 63.0249Z" fill="#4C5EB5"/>
</g>
<defs>
<clipPath id="clip0_365_88">
<rect width="1600" height="83" fill="white" transform="matrix(1 0 0 -1 0 83)"/>
</clipPath>
</defs>
</svg>
