<svg width="1440" height="79" viewBox="0 0 1440 79" fill="none" xmlns="http://www.w3.org/2000/svg">
<g clip-path="url(#clip0_317_18)">
<path d="M-40 18.998C-14.6644 -6.33756 10.656 -6.33756 35.9915 18.998C61.3271 44.3336 86.6475 44.3336 111.983 18.998C137.319 -6.33756 162.639 -6.33756 187.975 18.998C213.31 44.3336 238.631 44.3336 263.966 18.998C289.302 -6.33756 314.622 -6.33756 339.958 18.998C365.293 44.3336 390.614 44.3336 415.949 18.998C441.285 -6.33756 466.605 -6.33756 491.941 18.998C517.276 44.3336 542.597 44.3336 567.932 18.998C593.268 -6.33756 618.588 -6.33756 643.924 18.998C669.259 44.3336 694.58 44.3336 719.915 18.998C745.251 -6.33756 770.571 -6.33756 795.907 18.998C821.242 44.3336 846.563 44.3336 871.898 18.998C897.234 -6.33756 922.554 -6.33756 947.89 18.998C973.225 44.3336 998.546 44.3336 1023.88 18.998C1049.22 -6.33756 1074.54 -6.33756 1099.87 18.998C1125.21 44.3336 1150.53 44.3336 1175.86 18.998C1201.2 -6.33756 1226.52 -6.33756 1251.86 18.998C1277.19 44.3336 1302.51 44.3336 1327.85 18.998C1353.18 -6.33756 1378.5 -6.33756 1403.84 18.998C1429.17 44.3336 1454.49 44.3336 1479.83 18.998L1479.95 78.9401H-39.7872L-40 18.998Z" fill="#4C5EB5"/>
</g>
<defs>
<clipPath id="clip0_317_18">
<rect width="1519.95" height="78.94" fill="white" transform="translate(-40)"/>
</clipPath>
</defs>
</svg>
