<svg width="131" height="174" viewBox="0 0 131 174" fill="none" xmlns="http://www.w3.org/2000/svg">
<path d="M42.6099 0.00425554C42.6099 0.00425554 39.6308 -0.274838 39.519 3.68739C39.2937 11.6839 40.0747 20.6685 38.8639 28.5714C38.1135 33.4712 36.7875 38.3196 34.9091 42.9071C33.1218 47.2727 30.6239 51.3434 27.9487 55.2295C21.7735 64.2016 14.3493 72.2892 8.40262 81.4146C5.63386 85.6626 3.24773 90.2816 1.9176 95.1747C0.421002 100.679 -0.164557 106.484 0.0391864 112.185C0.271917 118.707 1.61448 125.178 3.21461 131.506C4.19357 135.376 5.85166 139.076 7.73173 142.597C9.96462 146.778 12.4609 150.87 15.4988 154.509C17.9322 157.422 20.9088 159.885 24.0039 162.084C30.4682 166.678 38.3744 169.974 46.0603 171.772C54.297 173.699 64.668 173.705 72.8352 172.726C82.0964 171.617 91.8992 169.789 100.281 165.317C114.656 157.648 123.188 145.383 128.084 130.074C129.27 126.367 130.041 122.514 130.497 118.649C130.968 114.657 131.153 110.604 130.857 106.594C130.554 102.488 129.941 98.3584 128.71 94.4293C126.507 87.3952 123.934 80.4323 120.604 73.8571C117.041 66.8221 113.227 60.0886 108.275 53.9515C105.623 50.6643 103.884 50.7264 102.293 52.4036C98.2211 56.6954 94.8195 61.577 91.0826 66.1637C91.1157 58.6542 91.4909 50.8738 89.234 43.7122C84.2 27.739 73.0969 13.7727 58.6427 5.57738C48.4729 -0.189546 42.6099 0.00425554 42.6099 0.00425554Z" fill="#ED533B"/>
</svg>
