<svg width="1600" height="83" viewBox="0 0 1600 83" fill="none" xmlns="http://www.w3.org/2000/svg">
<g clip-path="url(#clip0_365_90)">
<path d="M0 19.9751C26.6699 -6.66356 53.3237 -6.66356 79.9936 19.9751C106.663 46.6137 133.317 46.6137 159.987 19.9751C186.657 -6.66356 213.311 -6.66356 239.981 19.9751C266.651 46.6137 293.305 46.6137 319.974 19.9751C346.644 -6.66356 373.298 -6.66356 399.968 19.9751C426.638 46.6137 453.292 46.6137 479.962 19.9751C506.631 -6.66356 533.285 -6.66356 559.955 19.9751C586.625 46.6137 613.279 46.6137 639.949 19.9751C666.619 -6.66356 693.273 -6.66356 719.942 19.9751C746.612 46.6137 773.266 46.6137 799.936 19.9751C826.606 -6.66356 853.26 -6.66356 879.93 19.9751C906.599 46.6137 933.253 46.6137 959.923 19.9751C986.593 -6.66356 1013.25 -6.66356 1039.92 19.9751C1066.59 46.6137 1093.24 46.6137 1119.91 19.9751C1146.58 -6.66356 1173.23 -6.66356 1199.9 19.9751C1226.57 46.6137 1253.23 46.6137 1279.9 19.9751C1306.57 -6.66356 1333.22 -6.66356 1359.89 19.9751C1386.56 46.6137 1413.21 46.6137 1439.88 19.9751C1466.55 -6.66356 1493.21 -6.66356 1519.88 19.9751C1546.55 46.6137 1573.2 46.6137 1599.87 19.9751L1600 83.0001H0.223982L0 19.9751Z" fill="#119DD7"/>
</g>
<defs>
<clipPath id="clip0_365_90">
<rect width="1600" height="83" fill="white"/>
</clipPath>
</defs>
</svg>
